<svg width="42" height="42" viewBox="0 0 42 42" fill="none" xmlns="http://www.w3.org/2000/svg">
  <!-- Central Cloud -->
  <path opacity="0.15" fill-rule="evenodd" clip-rule="evenodd" d="M21 12c-5 0-9 4-9 9s4 9 9 9 9-4 9-9-4-9-9-9zm0 16c-3.9 0-7-3.1-7-7s3.1-7 7-7 7 3.1 7 7-3.1 7-7 7z" 
    fill="url(#cloudGradient)" />
  
  <!-- Neural Network Lines (8 directions) -->
  
  <!-- Top Line -->
  <line x1="21" y1="3" x2="21" y2="10" stroke="url(#lineGradient)" stroke-width="2"/>
  <circle cx="21" cy="3" r="2" fill="url(#circleGradient)"/>

  <!-- Bottom Line -->
  <line x1="21" y1="32" x2="21" y2="39" stroke="url(#lineGradient)" stroke-width="2"/>
  <circle cx="21" cy="39" r="2" fill="url(#circleGradient)"/>

  <!-- Left Line -->
  <line x1="3" y1="21" x2="10" y2="21" stroke="url(#lineGradient)" stroke-width="2"/>
  <circle cx="3" cy="21" r="2" fill="url(#circleGradient)"/>

  <!-- Right Line -->
  <line x1="32" y1="21" x2="39" y2="21" stroke="url(#lineGradient)" stroke-width="2"/>
  <circle cx="39" cy="21" r="2" fill="url(#circleGradient)"/>

  <!-- Top Left Diagonal Line -->
  <line x1="6" y1="6" x2="12" y2="12" stroke="url(#lineGradient)" stroke-width="2"/>
  <circle cx="6" cy="6" r="2" fill="url(#circleGradient)"/>

  <!-- Top Right Diagonal Line -->
  <line x1="36" y1="6" x2="30" y2="12" stroke="url(#lineGradient)" stroke-width="2"/>
  <circle cx="36" cy="6" r="2" fill="url(#circleGradient)"/>

  <!-- Bottom Left Diagonal Line -->
  <line x1="6" y1="36" x2="12" y2="30" stroke="url(#lineGradient)" stroke-width="2"/>
  <circle cx="6" cy="36" r="2" fill="url(#circleGradient)"/>

  <!-- Bottom Right Diagonal Line -->
  <line x1="36" y1="36" x2="30" y2="30" stroke="url(#lineGradient)" stroke-width="2"/>
  <circle cx="36" cy="36" r="2" fill="url(#circleGradient)"/>

  <!-- Defining gradients for consistency -->
  <defs>
    <linearGradient id="cloudGradient" x1="3" y1="3" x2="39" y2="39" gradientUnits="userSpaceOnUse">
      <stop offset="0.259336" stop-color="#FFDB6E"/>
      <stop offset="1" stop-color="#FFBC5E"/>
    </linearGradient>
    <linearGradient id="lineGradient" x1="0" y1="0" x2="10" y2="10" gradientUnits="userSpaceOnUse">
      <stop offset="0.259336" stop-color="#FFDB6E"/>
      <stop offset="1" stop-color="#FFBC5E"/>
    </linearGradient>
    <linearGradient id="circleGradient" x1="0" y1="0" x2="10" y2="10" gradientUnits="userSpaceOnUse">
      <stop offset="0.259336" stop-color="#FFDB6E"/>
      <stop offset="1" stop-color="#FFBC5E"/>
    </linearGradient>
  </defs>
</svg>
